<svg width="100" height="100" viewBox="0 0 100 100" fill="none" xmlns="http://www.w3.org/2000/svg">
<path d="M89.3749 78.75H66.4583V69.5833H80.2083C80.5857 69.5814 80.9569 69.4862 81.2887 69.3063C81.6205 69.1264 81.9028 68.8673 82.1104 68.5521L86.0978 62.7084C87.4392 62.4591 88.6714 61.803 89.627 60.8292C90.2863 60.1771 90.8069 59.3983 91.1574 58.5397C91.5079 57.6812 91.6811 56.7606 91.6666 55.8334C91.6623 54.3903 91.204 52.9853 90.3568 51.8172C89.5095 50.6491 88.3161 49.7772 86.9458 49.325C86.482 46.0448 84.8494 43.0423 82.3485 40.8697C79.8475 38.6971 76.6462 37.5006 73.3333 37.5001H63.8229C62.6415 29.4927 58.4772 22.2278 52.1648 17.1616C45.8524 12.0954 37.8584 9.60231 29.7851 10.1821C21.7119 10.7618 14.1561 14.3716 8.6324 20.2878C3.10867 26.204 0.0252035 33.9894 9.08253e-05 42.0834C-0.0122494 47.2515 1.23305 52.345 3.62855 56.9243C6.02405 61.5037 9.4978 65.4315 13.7501 68.3688V78.75H6.87508C6.26729 78.75 5.6844 78.9914 5.25463 79.4212C4.82486 79.851 4.58342 80.4339 4.58342 81.0417C4.58342 81.6494 4.82486 82.2323 5.25463 82.6621C5.6844 83.0919 6.26729 83.3333 6.87508 83.3333H89.3749C89.9827 83.3333 90.5656 83.0919 90.9954 82.6621C91.4251 82.2323 91.6666 81.6494 91.6666 81.0417C91.6666 80.4339 91.4251 79.851 90.9954 79.4212C90.5656 78.9914 89.9827 78.75 89.3749 78.75ZM11.6647 44.9251C11.5268 43.9841 11.4579 43.0344 11.4584 42.0834C11.4584 36.6133 13.6314 31.3673 17.4993 27.4993C21.3672 23.6314 26.6133 21.4584 32.0834 21.4584C32.6334 21.4584 33.1604 21.4584 33.7104 21.4584H34.1459H34.375C34.7981 21.4971 35.2189 21.5583 35.6354 21.6418H35.8875C36.8146 21.8029 37.7267 22.0405 38.6146 22.3522L39.4854 22.673C40.2145 22.9328 40.9199 23.2548 41.5938 23.6355C41.8773 23.7487 42.1465 23.8949 42.3958 24.0709C43.1313 24.465 43.8293 24.9253 44.4813 25.4459C44.9167 25.7897 45.3521 26.1334 45.7646 26.5001C46.0025 26.688 46.2248 26.8949 46.4292 27.1188C46.6619 27.3289 46.8837 27.5507 47.0938 27.7834C47.5217 28.2223 47.9198 28.6893 48.2854 29.1813C48.4886 29.4102 48.6725 29.6555 48.8354 29.9147C49.1367 30.2961 49.4051 30.7024 49.6375 31.1292C49.7041 31.2042 49.7582 31.2893 49.7979 31.3813C50.0042 31.7022 50.1875 32.0459 50.3708 32.3897C50.6427 32.9036 50.8875 33.4314 51.1042 33.9709C51.5258 34.9802 51.863 36.0226 52.1125 37.0876C52.1125 37.0876 52.1125 37.248 52.1125 37.3167H51.5625C50.9607 37.316 50.3608 37.3852 49.775 37.523C49.0642 37.6821 48.3781 37.9365 47.7354 38.2792C47.7354 38.0042 47.5979 37.7292 47.5063 37.4542C47.5965 37.7234 47.6654 37.9993 47.7125 38.2792V38.2792C47.3006 38.4827 46.9157 38.7367 46.5667 39.0355C45.4606 37.3875 43.8496 36.1431 41.9757 35.4892C40.1018 34.8352 38.0663 34.8072 36.1751 35.4091C34.2839 36.0111 32.6391 37.2107 31.488 38.8275C30.3369 40.4443 29.7417 42.391 29.7917 44.3751C29.7996 45.9904 30.2429 47.5738 31.075 48.9584C29.4315 49.202 27.9318 50.0325 26.8533 51.2964C25.7747 52.5603 25.1904 54.172 25.2084 55.8334C25.2084 56.0855 25.2084 56.3605 25.2084 56.5896C25.3766 58.1702 26.0874 59.6437 27.2197 60.7593C28.352 61.8749 29.8358 62.5636 31.4188 62.7084C31.1519 62.7318 30.8836 62.7318 30.6167 62.7084C30.2045 62.731 29.7914 62.731 29.3792 62.7084L28.3709 62.5479C28.0382 62.5012 27.709 62.4323 27.3855 62.3417L26.423 62.0896C24.3397 61.4327 22.3803 60.4336 20.6251 59.1334C20.093 58.7793 19.5805 58.3968 19.0896 57.9875L18.9063 57.8271C18.6313 57.598 18.3563 57.3688 18.1042 57.1167C17.8521 56.8646 17.5771 56.6125 17.3251 56.3375C17.0627 56.0871 16.8177 55.8191 16.5917 55.5355C16.3204 55.2383 16.0678 54.9245 15.8355 54.5959C15.5834 54.275 15.3313 53.9542 15.1251 53.6334C14.669 52.965 14.2557 52.2685 13.8876 51.548C13.6584 51.1202 13.4521 50.6848 13.2688 50.2417V50.1042C13.0474 49.7346 12.8484 49.3519 12.673 48.9584C12.673 48.9584 12.673 48.9584 12.673 48.798C12.5344 48.447 12.4196 48.0872 12.3292 47.7209C12.2652 47.533 12.2116 47.3418 12.1688 47.148C12.1688 46.8042 12.0084 46.4605 11.9397 46.1167C11.8271 45.7246 11.7353 45.3268 11.6647 44.9251V44.9251ZM84.7916 53.5417C85.3994 53.5417 85.9823 53.7831 86.4121 54.2129C86.8418 54.6427 87.0833 55.2256 87.0833 55.8334C87.079 56.1382 87.014 56.4391 86.892 56.7185C86.77 56.9979 86.5935 57.2501 86.3728 57.4604C86.1697 57.6747 85.9242 57.8444 85.652 57.9588C85.3798 58.0732 85.0868 58.1298 84.7916 58.125H32.0834C31.4756 58.125 30.8927 57.8836 30.4629 57.4538C30.0331 57.0241 29.7917 56.4412 29.7917 55.8334C29.7959 55.5285 29.861 55.2276 29.9829 54.9482C30.1049 54.6689 30.2814 54.4166 30.5021 54.2063C30.7053 53.992 30.9507 53.8223 31.2229 53.7079C31.4951 53.5935 31.7881 53.5369 32.0834 53.5417H84.7916ZM48.125 65H42.4875L40.9521 62.7084H53.0979V62.9604C53.0232 63.178 52.962 63.3999 52.9146 63.625C52.9146 63.8542 52.9146 64.0834 52.9146 64.3125C52.9146 64.5417 52.9146 64.7709 52.9146 65H48.125ZM34.375 44.3751C34.375 43.4686 34.6438 42.5824 35.1475 41.8287C35.6511 41.075 36.3669 40.4875 37.2044 40.1406C38.0419 39.7937 38.9634 39.7029 39.8525 39.8798C40.7416 40.0566 41.5583 40.4932 42.1993 41.1342C42.8402 41.7751 43.2768 42.5918 43.4536 43.4809C43.6305 44.37 43.5397 45.2915 43.1928 46.129C42.8459 46.9665 42.2584 47.6823 41.5047 48.186C40.751 48.6896 39.8648 48.9584 38.9584 48.9584C37.7428 48.9584 36.577 48.4755 35.7175 47.616C34.8579 46.7564 34.375 45.5906 34.375 44.3751ZM50.4167 69.5833H52.7083V78.75H50.4167V69.5833ZM78.9708 65H66.4583C66.4583 64.7021 66.4583 64.4042 66.4583 64.1063C66.4583 63.8084 66.4583 63.7854 66.4583 63.625C66.3955 63.314 66.3113 63.0077 66.2062 62.7084H80.6437L78.9708 65ZM82.202 48.9584H51.5625C50.9029 48.9634 50.2567 48.7719 49.7063 48.4084C49.2752 48.1307 48.9118 47.7602 48.6426 47.3239C48.3733 46.8876 48.205 46.3966 48.1501 45.8869C48.0952 45.3771 48.155 44.8616 48.3251 44.3779C48.4952 43.8943 48.7714 43.4548 49.1333 43.0917C49.2898 42.9156 49.476 42.7682 49.6833 42.6563C49.7407 42.5954 49.8113 42.5484 49.8896 42.5188L50.4854 42.2667H50.7375C50.9884 42.2316 51.2429 42.2316 51.4937 42.2667H73.3333C75.3403 42.2574 77.2948 42.907 78.8969 44.1159C80.499 45.3247 81.6602 47.0259 82.202 48.9584V48.9584ZM29.7917 71.875H34.375V78.75H29.7917V71.875Z" fill="#1B2F52"/>
</svg>
