<svg width="116" height="116" viewBox="0 0 116 116" fill="none" xmlns="http://www.w3.org/2000/svg">
<path d="M63.8364 60.1641C64.8081 59.0577 66.3054 56.8231 66.5035 55.268L66.6518 54.1047C66.781 53.0907 67.113 52.113 67.628 51.2302C68.3075 50.0654 68.6655 48.7411 68.6655 47.3927V41.7904C68.6655 35.9814 63.9564 31.2722 58.1473 31.2722C52.3383 31.2722 47.6292 35.9814 47.6292 41.7904V47.654C47.6292 48.8362 47.9045 50.0025 48.4333 51.06L48.6082 51.41C48.9915 52.1768 49.2427 53.0027 49.3511 53.853L49.5313 55.2682C49.7195 56.7437 51.1607 58.9146 52.0515 59.9922" stroke="#1B2F52" stroke-width="4" stroke-miterlimit="10" stroke-linecap="round" stroke-linejoin="round"/>
<path d="M51.9897 60.5933L51.4148 67.2816L35.2038 72.4925C31.9728 73.5164 29.7771 76.5152 29.7771 79.9047L27.6316 101.004" stroke="#1B2F52" stroke-width="4" stroke-miterlimit="10" stroke-linecap="round" stroke-linejoin="round"/>
<path d="M88.1941 101.004L86.0486 79.9047C86.0486 76.5152 83.8529 73.5164 80.6218 72.4925L64.4108 67.2816L63.8359 60.5933" stroke="#1B2F52" stroke-width="4" stroke-miterlimit="10" stroke-linecap="round" stroke-linejoin="round"/>
<path d="M42.8628 90.0247C44.5037 90.0247 45.8338 88.6946 45.8338 87.0538C45.8338 85.4129 44.5037 84.0828 42.8628 84.0828C41.222 84.0828 39.8918 85.4129 39.8918 87.0538C39.8918 88.6946 41.222 90.0247 42.8628 90.0247Z" stroke="#1B2F52" stroke-width="4" stroke-miterlimit="10" stroke-linecap="round" stroke-linejoin="round"/>
<path d="M42.8042 82.752V70.2257C42.8042 70.2257 45.0404 64.2603 51.3307 64.2603" stroke="#1B2F52" stroke-width="4" stroke-miterlimit="10" stroke-linecap="round" stroke-linejoin="round"/>
<path d="M71.4407 66.7612L68.7068 82.7495C68.4767 84.4327 69.2207 86.1005 70.6266 87.054" stroke="#1B2F52" stroke-width="4" stroke-miterlimit="10" stroke-linecap="round" stroke-linejoin="round"/>
<path d="M76.115 87.0538L76.2477 86.9675C77.9314 85.8733 78.6768 84.0401 78.142 82.308L74.4126 70.2252C74.4126 70.2252 71.1579 64.2036 64.5691 64.2036" stroke="#1B2F52" stroke-width="4" stroke-miterlimit="10" stroke-linecap="round" stroke-linejoin="round"/>
<path d="M52.2283 73.2852L58.1473 90.9636L63.8359 73.2852" stroke="#1B2F52" stroke-width="4" stroke-miterlimit="10" stroke-linecap="round" stroke-linejoin="round"/>
<path d="M58.1162 91.104V101.08" stroke="#1B2F52" stroke-width="4" stroke-miterlimit="10" stroke-linecap="round" stroke-linejoin="round"/>
<path d="M91.305 44.4365C92.1098 43.5198 93.3503 41.6687 93.5146 40.3804L93.6373 39.4167C93.7443 38.5766 94.0194 37.7669 94.4461 37.0354C95.0089 36.0706 95.3054 34.9734 95.3054 33.8566V29.2154C95.3054 24.4033 91.4043 20.5022 86.5921 20.5022C81.78 20.5022 77.8789 24.4033 77.8789 29.2154V34.0728C77.8789 35.0523 78.107 36.0184 78.545 36.8944L78.69 37.1844C79.0076 37.8196 79.2157 38.5038 79.3055 39.2081L79.4549 40.3804C79.6108 41.6028 80.8047 43.4011 81.5427 44.2938" stroke="#1B2F52" stroke-width="4" stroke-miterlimit="10" stroke-linecap="round" stroke-linejoin="round"/>
<path d="M81.4913 44.7922L81.015 50.3329L72.6013 53.0373" stroke="#1B2F52" stroke-width="4" stroke-miterlimit="10" stroke-linecap="round" stroke-linejoin="round"/>
<path d="M111.483 78.2585L109.706 60.7898C109.706 57.9819 107.887 55.4976 105.21 54.6494L91.781 50.3326L91.3047 44.792" stroke="#1B2F52" stroke-width="4" stroke-miterlimit="10" stroke-linecap="round" stroke-linejoin="round"/>
<path d="M103.735 68.0884H100.985C100.664 68.0884 100.405 67.8287 100.405 67.5084V64.7582C100.405 64.4378 100.145 64.1782 99.8248 64.1782H98.2152C97.8948 64.1782 97.6352 64.4378 97.6352 64.7582V67.5084C97.6352 67.8287 97.3756 68.0884 97.0552 68.0884H94.3051C93.9847 68.0884 93.7251 68.348 93.7251 68.6684V70.278C93.7251 70.5984 93.9847 70.858 94.3051 70.858H97.0552C97.3756 70.858 97.6352 71.1176 97.6352 71.438V74.1881C97.6352 74.5085 97.8948 74.7681 98.2152 74.7681H99.8248C100.145 74.7681 100.405 74.5085 100.405 74.1881V71.438C100.405 71.1176 100.664 70.858 100.985 70.858H103.735C104.055 70.858 104.315 70.5984 104.315 70.278V68.6684C104.315 68.3482 104.055 68.0884 103.735 68.0884Z" fill="#1B2F52"/>
<path d="M81.5789 55.6025L86.4824 68.8182L91.1948 55.6025" stroke="#1B2F52" stroke-width="4" stroke-miterlimit="10" stroke-linecap="round" stroke-linejoin="round"/>
<path d="M22.0061 49.3625L21.5892 54.2137L9.83125 57.9932C7.48758 58.7358 5.89514 60.911 5.89514 63.3693L4.33911 77.7895" stroke="#1B2F52" stroke-width="4" stroke-miterlimit="10" stroke-linecap="round" stroke-linejoin="round"/>
<path d="M42.7735 57.9932L31.0155 54.2137L30.5986 49.3625" stroke="#1B2F52" stroke-width="4" stroke-miterlimit="10" stroke-linecap="round" stroke-linejoin="round"/>
<path d="M22.179 59.1934L26.4723 70.2676L30.5982 59.1934" stroke="#1B2F52" stroke-width="4" stroke-miterlimit="10" stroke-linecap="round" stroke-linejoin="round"/>
<path d="M32.6212 27.7388C35.1027 29.3651 36.1789 31.5484 36.5946 34.6419L37.3554 40.3204C37.3554 40.3204 38.1212 46.2333 39.6988 49.4549C38.0266 49.7477 33.4691 47.8304 33.4691 47.8304L30.6868 49.25" stroke="#1B2F52" stroke-width="4" stroke-miterlimit="10" stroke-linecap="round" stroke-linejoin="round"/>
<path d="M21.6241 49.2501L19.2268 47.8305C19.2268 47.8305 15.2921 49.4549 12.8774 49.4549C14.4803 46.3612 15.226 40.2884 15.226 40.2884L15.9774 34.674C16.3869 31.5554 17.2001 29.5704 19.705 27.9399" stroke="#1B2F52" stroke-width="4" stroke-miterlimit="10" stroke-linecap="round" stroke-linejoin="round"/>
<path d="M29.8588 32.105C28.2165 34.8078 25.6925 37.4227 20.0315 39.0309" stroke="#1B2F52" stroke-width="4" stroke-miterlimit="10" stroke-linecap="round" stroke-linejoin="round"/>
<path d="M28.8696 33.9846C28.8696 33.9846 29.4596 36.2169 31.5638 37.527" stroke="#1B2F52" stroke-width="4" stroke-miterlimit="10" stroke-linecap="round" stroke-linejoin="round"/>
<path d="M29.0752 23.6555H27.4543C27.2654 23.6555 27.1123 23.5024 27.1123 23.3135V21.6926C27.1123 21.5037 26.9592 21.3506 26.7703 21.3506H25.8215C25.6326 21.3506 25.4795 21.5037 25.4795 21.6926V23.3135C25.4795 23.5024 25.3264 23.6555 25.1375 23.6555H23.5165C23.3277 23.6555 23.1746 23.8086 23.1746 23.9975V24.9464C23.1746 25.1352 23.3277 25.2883 23.5165 25.2883H25.1375C25.3264 25.2883 25.4795 25.4414 25.4795 25.6303V27.2513C25.4795 27.4401 25.6326 27.5932 25.8215 27.5932H26.7703C26.9592 27.5932 27.1123 27.4401 27.1123 27.2513V25.6303C27.1123 25.4414 27.2654 25.2883 27.4543 25.2883H29.0752C29.2641 25.2883 29.4172 25.1352 29.4172 24.9464V23.9975C29.417 23.8084 29.2641 23.6555 29.0752 23.6555Z" fill="#1B2F52"/>
<path d="M18.3402 28.5402L15.9489 25.0908C15.5645 24.3482 15.8777 23.4563 16.6598 23.0668L24.6552 16.3855C25.6744 15.8384 26.9007 15.8421 27.9167 16.3954L35.6606 22.9977C36.4872 23.4155 36.7742 24.3874 36.2926 25.1379L33.5385 28.3137" stroke="#1B2F52" stroke-width="4" stroke-miterlimit="10" stroke-linecap="round" stroke-linejoin="round"/>
</svg>
