<svg width="100" height="100" viewBox="0 0 100 100" fill="none" xmlns="http://www.w3.org/2000/svg">
<path d="M55.6159 22.5418C54.984 22.4772 54.524 21.912 54.5886 21.2802C54.6532 20.6483 55.2184 20.1883 55.8502 20.2529C57.5665 20.4345 59.6459 20.9669 61.6732 21.6267C64.219 22.4557 66.7173 23.497 68.2987 24.2929C68.8659 24.579 69.0938 25.271 68.8078 25.8383C68.5217 26.4055 67.8297 26.6334 67.2624 26.3474C65.7729 25.5979 63.4003 24.6106 60.9613 23.8163C59.0644 23.199 57.1472 22.7037 55.6159 22.5418Z" fill="#1B2F52"/>
<path d="M33.3059 26.182C32.7412 26.4729 32.0469 26.2509 31.756 25.6862C31.4651 25.1215 31.687 24.4272 32.2517 24.1363C33.6063 23.4361 35.6416 22.5475 37.7256 21.8121C39.4161 21.2156 41.1614 20.7127 42.642 20.4804C43.269 20.3835 43.8563 20.813 43.9532 21.44C44.05 22.067 43.6205 22.6543 42.9935 22.7512C41.6858 22.9565 40.0788 23.4237 38.4915 23.9838C36.5028 24.6858 34.577 25.525 33.3059 26.182Z" fill="#1B2F52"/>
<path d="M49.1053 21.2802C48.4683 21.2802 47.9518 20.7637 47.9518 20.1268C47.9518 19.4898 48.4683 18.9733 49.1053 18.9733C52.5148 18.9733 53.3344 15.8051 54.2147 12.3998L54.2929 12.0978C54.3575 11.8486 54.4989 11.6399 54.6853 11.4902L54.6848 11.4895C54.8678 11.3428 55.0269 11.0761 55.1148 10.7937C55.1365 10.7243 55.1524 10.6588 55.1621 10.5997C54.6205 10.483 54.2278 9.98795 54.2569 9.41678C54.2585 9.38333 54.262 9.35011 54.2664 9.31758H54.2659L54.5208 7.47142C54.6078 6.84211 55.1891 6.40243 55.8184 6.48939C56.4477 6.57636 56.8874 7.15769 56.8004 7.78699L56.6683 8.74364C57.1296 9.09128 57.3751 9.58241 57.4489 10.1374C57.5059 10.5693 57.4512 11.0362 57.3137 11.4784C57.1423 12.0277 56.8286 12.5776 56.4353 12.9958C55.325 17.2903 54.2857 21.2802 49.1053 21.2802Z" fill="#1B2F52"/>
<path d="M49.1055 18.9733C49.7424 18.9733 50.2589 19.4898 50.2589 20.1267C50.2589 20.7637 49.7424 21.2802 49.1055 21.2802C43.9248 21.2802 42.8858 17.2903 41.7755 12.9956C41.3822 12.5771 41.0685 12.0277 40.8973 11.4784C40.7594 11.0362 40.7049 10.5693 40.7619 10.1374C40.8353 9.58609 41.0779 9.09774 41.5331 8.75055C41.4634 8.09103 41.4625 7.44903 41.5282 6.83588C41.6288 5.89699 41.8846 5.01762 42.2883 4.23745C42.5792 3.67273 43.2736 3.45081 43.8383 3.74171C44.403 4.0326 44.6249 4.72696 44.3341 5.29168C44.0614 5.81902 43.8872 6.42387 43.8171 7.07902C43.7456 7.74546 43.7788 8.45897 43.9204 9.19232C43.9387 9.26452 43.9502 9.33949 43.9541 9.41677C43.9832 9.98795 43.5906 10.483 43.0489 10.5997C43.0584 10.6585 43.0745 10.7243 43.0962 10.7937C43.1841 11.0761 43.3433 11.3428 43.5262 11.4895L43.5257 11.4902C43.7121 11.6399 43.8535 11.8486 43.9181 12.0978L43.9963 12.4002C44.8766 15.8056 45.6955 18.9733 49.1055 18.9733Z" fill="#1B2F52"/>
<path d="M44.3294 5.3009C44.0334 5.86308 43.3372 6.079 42.7751 5.78303C42.2129 5.48706 41.997 4.79085 42.2929 4.22868C42.5907 3.66142 42.9444 3.15138 43.3407 2.70155C44.5156 1.36819 46.0872 0.522505 47.7567 0.216156C49.4238 -0.0897322 51.1904 0.14349 52.7579 0.966803C53.2952 1.24893 53.8057 1.59726 54.2765 2.01203C54.703 2.38736 54.7513 2.77721 54.7782 3.16707C55.2788 3.72625 55.7337 4.27251 56.0966 4.9145C56.5393 5.69814 56.814 6.56136 56.814 7.62919C56.814 8.26611 56.2975 8.78262 55.6606 8.78262C55.0237 8.78262 54.5072 8.26611 54.5072 7.62919C54.5072 6.99297 54.3496 6.48938 54.0961 6.0407C53.808 5.53089 53.3702 5.03238 52.8853 4.49719C52.5791 4.15855 52.5215 3.84205 52.4956 3.52786C52.2347 3.3237 51.9632 3.14908 51.6857 3.00328C50.586 2.42565 49.3445 2.26256 48.171 2.47778C47.0003 2.69255 45.8969 3.28679 45.0708 4.22452C44.7869 4.54679 44.5363 4.90666 44.3294 5.3009Z" fill="#1B2F52"/>
<path d="M51.616 70.6261C51.5514 69.9942 52.0114 69.429 52.6433 69.3644C53.2751 69.2999 53.8403 69.7598 53.9049 70.3917L56.3947 94.2823C56.5042 95.3333 56.7478 96.2283 57.1974 96.82C57.5707 97.3114 58.1472 97.6064 58.9995 97.6064H58.9998C59.0281 97.6064 59.0563 97.6076 59.0844 97.6097C59.8201 97.5887 60.325 97.2581 60.6439 96.7501C61.0422 96.1158 61.2141 95.1983 61.2141 94.1939C61.2141 94.1632 61.2153 94.1326 61.2178 94.1023L61.2171 94.0345C61.1562 90.6582 60.8505 86.3015 60.5504 82.0212C60.2575 77.8412 59.9693 73.7334 59.9184 70.5269C59.9084 69.8925 60.4148 69.37 61.0492 69.3601C61.6835 69.3501 62.206 69.8565 62.216 70.4909C62.2644 73.5458 62.5539 77.6707 62.848 81.868C63.1465 86.128 63.4508 90.4642 63.5147 93.9985H63.5145L63.5147 94.0075L63.5154 94.0811C63.5191 94.1183 63.5209 94.1559 63.5209 94.1939C63.5209 95.5958 63.2407 96.9402 62.5904 97.9755C61.8683 99.1257 60.7419 99.8713 59.116 99.9075C59.0777 99.9114 59.0392 99.9133 58.9998 99.9133H58.9995C57.3469 99.9133 56.1778 99.2736 55.3681 98.2078C54.6348 97.2429 54.256 95.957 54.1058 94.5166L51.616 70.6261Z" fill="#1B2F52"/>
<path d="M35.995 70.4909C36.0049 69.8565 36.5274 69.3501 37.1618 69.3601C37.7962 69.37 38.3026 69.8925 38.2926 70.5269C38.2417 73.7343 37.9533 77.8426 37.6603 82.023C37.3602 86.3029 37.0548 90.6589 36.9937 94.0345L36.9934 94.0382L36.992 94.193H36.9967C36.9967 95.1976 37.1685 96.1153 37.5669 96.7499C37.8899 97.2641 38.4034 97.597 39.1545 97.6104L39.1582 97.6106L39.2112 97.611V97.6064H39.2115C40.0636 97.6064 40.6403 97.3114 41.0136 96.8203C41.4634 96.2283 41.707 95.3335 41.8163 94.2823L44.3061 70.3917C44.3707 69.7598 44.9359 69.2999 45.5677 69.3644C46.1996 69.429 46.6596 69.9942 46.595 70.6261L44.1052 94.5166C43.9553 95.9573 43.5762 97.2431 42.8429 98.2081C42.0332 99.2736 40.8641 99.9133 39.2115 99.9133H39.2112V99.9087H39.2022L39.1275 99.908H39.1185C37.4802 99.8787 36.3464 99.1315 35.6204 97.9753C34.9701 96.9395 34.6898 95.5949 34.6898 94.193H34.6944V94.184L34.696 94.0075V93.9985C34.7602 90.4649 35.0642 86.1294 35.3627 81.8698C35.6568 77.6721 35.9466 73.5465 35.995 70.4909Z" fill="#1B2F52"/>
<path d="M18.5357 24.1667H81.4641C82.7693 24.1667 83.9557 24.7001 84.8145 25.5589C84.8378 25.5822 84.86 25.6062 84.8807 25.6311C85.7006 26.4844 86.2067 27.6413 86.2067 28.9096V66.3676C86.2067 67.6698 85.6734 68.8546 84.8145 69.7137L84.8122 69.7158L84.8145 69.7181C83.9557 70.5769 82.7693 71.1103 81.4641 71.1103H18.5357C17.2305 71.1103 16.0441 70.5769 15.1852 69.7181C14.3264 68.8592 13.7931 67.6728 13.7931 66.3676V28.9096C13.7931 27.6039 14.3264 26.4177 15.1852 25.5589C16.0441 24.7001 17.2305 24.1667 18.5357 24.1667ZM81.4641 26.4736H18.5357C17.8669 26.4736 17.2579 26.7481 16.8162 27.1898C16.3744 27.6316 16.0999 28.2406 16.0999 28.9096V66.3676C16.0999 67.0364 16.3744 67.6454 16.8162 68.0871C17.2579 68.5289 17.8669 68.8034 18.5357 68.8034H81.4641C82.1328 68.8034 82.7418 68.5289 83.1836 68.0871L83.1857 68.0892C83.626 67.6475 83.8998 67.038 83.8998 66.3676V28.9096C83.8998 28.2632 83.6454 27.6733 83.2325 27.236L83.1836 27.1898C82.7418 26.7481 82.1328 26.4736 81.4641 26.4736Z" fill="#1B2F52"/>
<path d="M19.9221 32.4769C19.9221 33.1138 19.4056 33.6303 18.7687 33.6303C18.1318 33.6303 17.6153 33.1138 17.6153 32.4769C17.6153 31.3103 18.0932 30.2485 18.8626 29.4789L18.867 29.4745C19.6365 28.7052 20.6981 28.2272 21.8647 28.2272C22.5016 28.2272 23.0181 28.7437 23.0181 29.3807C23.0181 30.0176 22.5016 30.5341 21.8647 30.5341C21.33 30.5341 20.8437 30.7525 20.4914 31.1034C20.1406 31.4557 19.9221 31.9422 19.9221 32.4769ZM78.135 30.5341C77.4981 30.5341 76.9816 30.0176 76.9816 29.3807C76.9816 28.7437 77.4981 28.2272 78.135 28.2272C79.3048 28.2272 80.3676 28.7052 81.1372 29.4748C81.9065 30.2441 82.3845 31.3073 82.3845 32.4769C82.3845 33.1138 81.868 33.6303 81.2311 33.6303C80.5941 33.6303 80.0776 33.1138 80.0776 32.4769C80.0776 31.9438 79.8587 31.4582 79.5062 31.1057C79.1537 30.7532 78.6679 30.5341 78.135 30.5341ZM80.0776 62.8006C80.0776 62.1637 80.5941 61.6471 81.2311 61.6471C81.868 61.6471 82.3845 62.1637 82.3845 62.8006C82.3845 63.9653 81.907 65.0264 81.1369 65.7981L81.1346 65.8002L81.1325 65.8025L81.1266 65.8085C80.3554 66.575 79.2968 67.05 78.135 67.05C77.4981 67.05 76.9816 66.5335 76.9816 65.8966C76.9816 65.2597 77.4981 64.7432 78.135 64.7432C78.6709 64.7432 79.1563 64.5259 79.506 64.1759L79.5104 64.1715C79.8603 63.8218 80.0776 63.3364 80.0776 62.8006ZM21.8647 64.7432C22.5016 64.7432 23.0181 65.2597 23.0181 65.8966C23.0181 66.5335 22.5016 67.05 21.8647 67.05C20.6981 67.05 19.6365 66.572 18.867 65.8027L18.8626 65.7983C18.0932 65.0287 17.6153 63.9674 17.6153 62.8006C17.6153 62.1637 18.1318 61.6471 18.7687 61.6471C19.4056 61.6471 19.9221 62.1637 19.9221 62.8006C19.9221 63.3353 20.1406 63.8216 20.4914 64.1738C20.8437 64.5247 21.33 64.7432 21.8647 64.7432Z" fill="#1B2F52"/>
<path d="M47.9521 25.3481C47.9521 24.7111 48.4686 24.1946 49.1055 24.1946C49.7424 24.1946 50.2589 24.7111 50.2589 25.3481V51.2548C50.2589 51.8917 49.7424 52.4082 49.1055 52.4082C48.4686 52.4082 47.9521 51.8917 47.9521 51.2548V25.3481Z" fill="#1B2F52"/>
<path d="M32.6677 59.4875C32.6331 60.1219 32.0903 60.6079 31.4559 60.5733C30.8215 60.5387 30.3355 59.9959 30.3701 59.3615L31.7336 35.3867C31.735 35.3611 31.7373 35.3355 31.7403 35.3104L31.738 35.3102C31.9509 33.577 32.3791 32.3346 33.2137 31.4695C34.0919 30.5592 35.2954 30.1585 37.0138 30.1585C37.6507 30.1585 38.1672 30.675 38.1672 31.3119C38.1672 31.9489 37.6507 32.4654 37.0138 32.4654C35.9535 32.4654 35.273 32.6487 34.8719 33.0644C34.4273 33.5251 34.1787 34.3526 34.0269 35.5888L32.6677 59.4875ZM34.0269 35.5888V35.5893V35.5888Z" fill="#1B2F52"/>
<path d="M67.841 59.3615C67.8756 59.9959 67.3896 60.5387 66.7552 60.5733C66.1208 60.6079 65.578 60.1219 65.5434 59.4875L64.1842 35.5888C64.0324 34.3526 63.7837 33.5251 63.3392 33.0644C62.9378 32.6485 62.2573 32.4654 61.1971 32.4654C60.5601 32.4654 60.0436 31.9489 60.0436 31.3119C60.0436 30.675 60.5601 30.1585 61.1971 30.1585C62.9157 30.1585 64.1191 30.5592 64.9974 31.4695C65.832 32.3343 66.2601 33.5768 66.473 35.3102L66.4707 35.3104C66.4737 35.3355 66.476 35.3611 66.4774 35.3867L67.841 59.3615ZM64.1842 35.5893V35.5888V35.5893Z" fill="#1B2F52"/>
<path d="M52.1517 55.3656C51.724 55.3656 51.3219 55.462 50.9667 55.6334C50.5916 55.8145 50.2615 56.0798 50.0019 56.4039C49.604 56.8989 48.8794 56.9776 48.3844 56.5797C48.2983 56.5105 48.225 56.4313 48.1643 56.3453C47.9154 56.05 47.6014 55.806 47.2441 55.6334C46.8891 55.462 46.4868 55.3656 46.0591 55.3656C43.2076 55.3656 41.8106 55.773 41.3268 56.3608C41.2147 56.4971 41.1866 56.6703 41.2184 56.8611C41.2722 57.1829 41.4655 57.5552 41.7425 57.9377C42.7435 59.319 44.5419 60.5569 45.365 60.5569C45.535 60.5569 45.7541 60.5617 46.2642 60.5659C46.7465 60.5696 46.9954 60.5797 47.0932 60.5813L47.0875 60.5772C47.0739 60.5779 47.0663 60.5751 47.072 60.5657L47.069 60.5634C47.2808 60.2803 47.6054 59.8473 48.3306 59.1883C48.7752 58.7836 49.4506 58.7924 49.8848 59.1922C50.6082 59.8496 50.9309 60.281 51.1422 60.5636L51.1544 60.5804C51.2714 60.5774 51.5164 60.5689 51.9478 60.5657C52.4576 60.5615 52.6758 60.5567 52.8458 60.5567C53.6689 60.5567 55.4671 59.319 56.468 57.9377C56.7451 57.5552 56.9384 57.1829 56.9924 56.8609C57.0242 56.6703 56.9961 56.4969 56.8839 56.3608C56.4002 55.773 55.0032 55.3656 52.1517 55.3656ZM49.9664 53.5609C50.6326 53.2396 51.3745 53.0587 52.1517 53.0587C55.7887 53.0587 57.7638 53.8131 58.6593 54.901C59.2409 55.6073 59.4023 56.409 59.2632 57.2392C59.1458 57.9389 58.8058 58.6374 58.3333 59.2895C56.9672 61.1747 54.2292 62.8635 52.8458 62.8635L51.9658 62.8633C50.9773 62.8711 50.5674 62.8741 50.1309 62.6794C49.741 62.505 49.5819 62.3172 49.3537 62.0146C49.3332 61.9915 49.3136 61.9673 49.2949 61.9422C49.243 61.8727 49.1823 61.7918 49.1057 61.6969C49.0289 61.7918 48.9683 61.8727 48.9163 61.9419L48.9133 61.9396L48.9117 61.9419C48.652 62.2891 48.4995 62.4923 48.0799 62.6797C47.6437 62.8741 47.2337 62.8714 46.2462 62.8635L45.365 62.8637C43.9815 62.8637 41.2433 61.1747 39.8772 59.2895C39.4045 58.6371 39.0647 57.9386 38.9476 57.2394C38.8085 56.409 38.9699 55.6078 39.5515 54.901C40.447 53.8131 42.4221 53.0587 46.0591 53.0587C46.8363 53.0587 47.5784 53.2396 48.2444 53.5609C48.5484 53.7077 48.8365 53.8853 49.1044 54.0894C49.3722 53.8862 49.6608 53.7086 49.9664 53.5609ZM51.1198 60.577C51.0744 60.5733 50.9784 60.5398 51.0679 60.5797C51.0714 60.5814 51.0859 60.582 51.1138 60.5813L51.1198 60.577Z" fill="#1B2F52"/>
<path d="M41.0699 63.9664C41.0996 63.332 41.6383 62.8418 42.2726 62.8716C42.907 62.9013 43.3972 63.44 43.3675 64.0744L43.1211 69.2C43.0914 69.8343 42.5527 70.3245 41.9183 70.2948C41.2839 70.265 40.7937 69.7264 40.8235 69.092L41.0699 63.9664Z" fill="#1B2F52"/>
<path d="M54.8433 64.0744C54.8136 63.44 55.3038 62.9013 55.9382 62.8716C56.5725 62.8418 57.1112 63.332 57.1409 63.9664L57.3871 69.092C57.4168 69.7264 56.9266 70.265 56.2923 70.2948C55.6579 70.3245 55.1192 69.8343 55.0895 69.2L54.8433 64.0744Z" fill="#1B2F52"/>
<path d="M43.6021 48.9085C42.9652 48.9085 42.4487 48.392 42.4487 47.7551C42.4487 47.1182 42.9652 46.6017 43.6021 46.6017C45.0007 46.6017 45.9758 47.18 46.9505 47.7579C47.6518 48.1738 48.3535 48.59 49.1281 48.59C49.8956 48.59 50.5874 48.1761 51.2783 47.7627C52.2479 47.1823 53.2182 46.6017 54.609 46.6017C55.2459 46.6017 55.7624 47.1182 55.7624 47.7551C55.7624 48.392 55.2459 48.9085 54.609 48.9085C53.8415 48.9085 53.1499 49.3224 52.459 49.736C51.489 50.3162 50.5187 50.8968 49.1281 50.8968C47.729 50.8968 46.7537 50.3182 45.7791 49.7404C45.078 49.3247 44.3763 48.9085 43.6021 48.9085Z" fill="#1B2F52"/>
<path d="M42.6078 43.3078C41.9709 43.3078 41.4544 42.7913 41.4544 42.1543C41.4544 41.5174 41.9709 41.0009 42.6078 41.0009C43.935 41.0009 45.1405 41.552 46.3454 42.1031C47.3136 42.5458 48.2824 42.989 49.1281 42.989C49.96 42.989 50.9219 42.546 51.8832 42.1031C53.0795 41.5522 54.2763 41.0009 55.603 41.0009C56.2399 41.0009 56.7564 41.5174 56.7564 42.1543C56.7564 42.7913 56.2399 43.3078 55.603 43.3078C54.7709 43.3078 53.8089 43.7509 52.8474 44.1936C51.6513 44.7447 50.4543 45.2958 49.1281 45.2958C47.8003 45.2958 46.595 44.7445 45.3903 44.1936C44.4222 43.7507 43.4533 43.3078 42.6078 43.3078Z" fill="#1B2F52"/>
<path d="M41.6143 37.7067C40.9774 37.7067 40.4609 37.1902 40.4609 36.5533C40.4609 35.9164 40.9774 35.3999 41.6143 35.3999C42.896 35.3999 44.3341 35.9355 45.7719 36.4705C47.004 36.9291 48.2368 37.3881 49.1284 37.3881C50.011 37.3881 51.2366 36.9291 52.4618 36.4707C53.8913 35.9355 55.3213 35.3999 56.597 35.3999C57.2339 35.3999 57.7504 35.9164 57.7504 36.5533C57.7504 37.1902 57.2339 37.7067 56.597 37.7067C55.7142 37.7067 54.4885 38.1658 53.2636 38.6244C51.8338 39.1593 50.4038 39.695 49.1284 39.695C47.8465 39.695 46.4077 39.1593 44.9701 38.6241C43.7377 38.1655 42.5054 37.7067 41.6143 37.7067Z" fill="#1B2F52"/>
<path d="M40.6203 32.1057C39.9833 32.1057 39.4668 31.5892 39.4668 30.9523C39.4668 30.3154 39.9833 29.7989 40.6203 29.7989C41.8768 29.7989 43.5467 30.3227 45.2162 30.8469C46.7138 31.3165 48.2121 31.7869 49.1283 31.7869C50.0363 31.7869 51.527 31.3168 53.0174 30.8469C54.6788 30.3232 56.3407 29.7989 57.591 29.7989C58.2279 29.7989 58.7444 30.3154 58.7444 30.9523C58.7444 31.5892 58.2279 32.1057 57.591 32.1057C56.683 32.1057 55.1923 32.5761 53.7021 33.0457C52.0405 33.5696 50.3784 34.0937 49.1283 34.0937C47.8713 34.0937 46.2012 33.5694 44.5315 33.0457C43.0341 32.5758 41.5363 32.1057 40.6203 32.1057Z" fill="#1B2F52"/>
<path d="M30.6531 61.4434C30.6531 62.0803 30.1366 62.5969 29.4996 62.5969C28.8627 62.5969 28.3462 62.0803 28.3462 61.4434C28.3462 60.5675 28.7015 59.7744 29.2757 59.2003C29.3008 59.1751 29.3269 59.1513 29.3539 59.129C29.9211 58.5975 30.6831 58.2711 31.5188 58.2711C32.3917 58.2711 33.1834 58.6265 33.7576 59.2003L33.7597 59.2026L33.762 59.2003C34.3362 59.7744 34.6914 60.5675 34.6914 61.4434C34.6914 62.0803 34.1749 62.5969 33.538 62.5969C32.9011 62.5969 32.3846 62.0803 32.3846 61.4434C32.3846 61.2044 32.2875 60.9876 32.1311 60.8312L32.1334 60.8291C31.977 60.6741 31.7597 60.5779 31.5188 60.5779C31.2969 60.5779 31.0958 60.6593 30.943 60.7931L30.9066 60.8312C30.7502 60.9876 30.6531 61.2044 30.6531 61.4434Z" fill="#1B2F52"/>
<path d="M65.8264 61.4434C65.8264 62.0803 65.3099 62.5969 64.673 62.5969C64.0361 62.5969 63.5196 62.0803 63.5196 61.4434C63.5196 60.5675 63.8748 59.7744 64.449 59.2003C64.4742 59.1751 64.5002 59.1513 64.5272 59.129C65.0945 58.5975 65.8564 58.2711 66.6922 58.2711C67.5651 58.2711 68.3568 58.6265 68.931 59.2003L68.9331 59.2026L68.9354 59.2003C69.5095 59.7744 69.8646 60.5678 69.8646 61.4434C69.8646 62.0803 69.3481 62.5969 68.7111 62.5969C68.0742 62.5969 67.5577 62.0803 67.5577 61.4434C67.5577 61.2042 67.4608 60.9876 67.3044 60.8312L67.3067 60.8291C67.1503 60.6741 66.933 60.5779 66.6922 60.5779C66.4703 60.5779 66.2691 60.6593 66.1164 60.7931L66.08 60.8312C65.9236 60.9876 65.8264 61.2044 65.8264 61.4434Z" fill="#1B2F52"/>
</svg>
