<svg width="100" height="100" viewBox="0 0 100 100" fill="none" xmlns="http://www.w3.org/2000/svg">
<path d="M14.7696 83.905H3.84619V21.5562C3.84619 18.5448 6.29605 16.095 9.30837 16.095C12.3197 16.095 14.7696 18.5448 14.7696 21.5562V83.905ZM7.69235 80.0589H10.9235V21.5562C10.9235 20.666 10.1985 19.9411 9.30837 19.9411C8.41726 19.9411 7.69235 20.666 7.69235 21.5562V80.0589Z" fill="#1B2F52"/>
<path d="M96.1539 83.9051H85.2314V47.5733C85.2314 44.5609 87.6813 42.1111 90.6927 42.1111C93.7041 42.1111 96.1539 44.5609 96.1539 47.5733V83.9051ZM89.0776 80.059H92.3078V47.5733C92.3078 46.6821 91.5829 45.9572 90.6927 45.9572C89.8025 45.9572 89.0776 46.6821 89.0776 47.5733V80.059Z" fill="#1B2F52"/>
<path d="M89.0776 72.8305H10.9235V52.2231H89.0776V72.8305ZM14.7696 68.9843H85.2314V56.0693H14.7696V68.9843Z" fill="#1B2F52"/>
<path d="M81.1458 64.9316H56.6012V52.2231H81.1458V64.9316ZM60.4473 61.0855H77.2996V56.0693H60.4473V61.0855Z" fill="#1B2F52"/>
<path d="M25.9945 56.0656C23.0442 56.0656 19.2393 53.7857 16.2242 50.7696C14.1556 48.701 12.533 46.3929 11.655 44.2708C10.1695 40.681 11.2803 38.8133 12.0747 38.0189C12.8682 37.2254 14.7387 36.1127 18.3247 37.5992C20.4478 38.4771 22.7559 40.0997 24.8245 42.1683C29.0237 46.3666 31.7966 52.0945 28.9749 54.9181L28.974 54.92C28.1777 55.7144 27.1523 56.0656 25.9945 56.0656ZM15.104 40.6997C14.9537 40.6997 14.841 40.7213 14.7678 40.7598C14.5077 41.2885 15.3105 44.4172 18.9435 48.0502C22.5146 51.6213 25.5926 52.4504 26.248 52.1931C26.5119 51.5396 25.6752 48.4578 22.1052 44.8877C18.9313 41.7139 16.1425 40.6997 15.104 40.6997Z" fill="#1B2F52"/>
<path d="M58.3225 23.1375H54.4763V35.5417H58.3225V23.1375Z" fill="#1B2F52"/>
<path d="M50.1578 23.1375H46.3116V35.5417H50.1578V23.1375Z" fill="#1B2F52"/>
<path d="M56.3994 27.4165H48.2347V31.2627H56.3994V27.4165Z" fill="#1B2F52"/>
<path d="M65.5621 42.5852H39.0719V16.095H65.5621V42.5852ZM42.9181 38.739H61.7159V19.9411H42.9181V38.739Z" fill="#1B2F52"/>
</svg>
